{
  "accessors": [
    {
      "bufferView": 2,
      "componentType": 5126,
      "count": 506,
      "max": [
        81.649757385253906,
        74.537864685058594,
        176.67691040039062
      ],
      "min": [
        -81.649757385253906,
        -74.537864685058594,
        -16.995590209960938
      ],
      "type": "VEC3"
    },
    {
      "bufferView": 2,
      "byteOffset": 6072,
      "componentType": 5126,
      "count": 506,
      "max": [
        1,
        0.98571401834487915,
        1
      ],
      "min": [
        -1,
        -0.98571401834487915,
        -0.99619477987289429
      ],
      "type": "VEC3"
    },
    {
      "bufferView": 3,
      "componentType": 5126,
      "count": 506,
      "max": [
        0.99112695455551147,
        1,
        0.99176430702209473,
        1
      ],
      "min": [
        -1,
        -1,
        -0.99176466464996338,
        -1
      ],
      "type": "VEC4"
    },
    {
      "bufferView": 1,
      "componentType": 5126,
      "count": 506,
      "max": [
        0.91277974843978882,
        0.89770656824111938
      ],
      "min": [
        0.65655636787414551,
        0.12449454516172409
      ],
      "type": "VEC2"
    },
    {
      "bufferView": 0,
      "componentType": 5125,
      "count": 1590,
      "max": [
        505
      ],
      "min": [
        0
      ],
      "type": "SCALAR"
    },
    {
      "bufferView": 2,
      "byteOffset": 12144,
      "componentType": 5126,
      "count": 476,
      "max": [
        73.392654418945312,
        79.175628662109375,
        243.57882690429688
      ],
      "min": [
        32.315498352050781,
        -79.104759216308594,
        170.79495239257812
      ],
      "type": "VEC3"
    },
    {
      "bufferView": 2,
      "byteOffset": 17856,
      "componentType": 5126,
      "count": 476,
      "max": [
        0.9954102635383606,
        0.98384910821914673,
        0.96268647909164429
      ],
      "min": [
        -0.99541032314300537,
        -0.98384910821914673,
        -0.96268647909164429
      ],
      "type": "VEC3"
    },
    {
      "bufferView": 3,
      "byteOffset": 8096,
      "componentType": 5126,
      "count": 476,
      "max": [
        0.60254597663879395,
        0.9997900128364563,
        0.99156469106674194,
        1
      ],
      "min": [
        -0.83233922719955444,
        -0.99979007244110107,
        -0.99156486988067627,
        -1
      ],
      "type": "VEC4"
    },
    {
      "bufferView": 1,
      "byteOffset": 4048,
      "componentType": 5126,
      "count": 476,
      "max": [
        0.6960415244102478,
        0.96932971477508545
      ],
      "min": [
        0.076144874095916748,
        0.25177216529846191
      ],
      "type": "VEC2"
    },
    {
      "bufferView": 0,
      "byteOffset": 6360,
      "componentType": 5125,
      "count": 1728,
      "max": [
        475
      ],
      "min": [
        0
      ],
      "type": "SCALAR"
    },
    {
      "bufferView": 2,
      "byteOffset": 23568,
      "componentType": 5126,
      "count": 449,
      "max": [
        25.101722717285156,
        72.164802551269531,
        258.71038818359375
      ],
      "min": [
        -101.48716735839844,
        -71.466392517089844,
        -1.24420166015625
      ],
      "type": "VEC3"
    },
    {
      "bufferView": 2,
      "byteOffset": 28956,
      "componentType": 5126,
      "count": 449,
      "max": [
        0.99998420476913452,
        0.99995982646942139,
        0.98856484889984131
      ],
      "min": [
        -0.99985307455062866,
        -0.99995982646942139,
        -0.34195277094841003
      ],
      "type": "VEC3"
    },
    {
      "bufferView": 3,
      "byteOffset": 15712,
      "componentType": 5126,
      "count": 449,
      "max": [
        0.98856490850448608,
        0.99286609888076782,
        0.9999842643737793,
        1
      ],
      "min": [
        -0.092061825096607208,
        -0.9928661584854126,
        -0.98667317628860474,
        -1
      ],
      "type": "VEC4"
    },
    {
      "bufferView": 1,
      "byteOffset": 7856,
      "componentType": 5126,
      "count": 449,
      "max": [
        0.88714498281478882,
        0.97648346424102783
      ],
      "min": [
        0.09680551290512085,
        0.03336208313703537
      ],
      "type": "VEC2"
    },
    {
      "bufferView": 0,
      "byteOffset": 13272,
      "componentType": 5125,
      "count": 2592,
      "max": [
        448
      ],
      "min": [
        0
      ],
      "type": "SCALAR"
    }
  ],
  "asset": {
    "extras": {
      "author": "Anthony Yanez (https://sketchfab.com/paulyanez)",
      "license": "CC-BY-4.0 (http://creativecommons.org/licenses/by/4.0/)",
      "source": "https://sketchfab.com/models/b230a3f6ff634a8e94fa91febdc923cd",
      "title": "Gary (Spongebob)"
    },
    "generator": "Sketchfab-3.53.1",
    "version": "2.0"
  },
  "bufferViews": [
    {
      "buffer": 0,
      "byteLength": 23640,
      "byteOffset": 0,
      "name": "floatBufferViews",
      "target": 34963
    },
    {
      "buffer": 0,
      "byteLength": 11448,
      "byteOffset": 23640,
      "byteStride": 8,
      "name": "floatBufferViews",
      "target": 34962
    },
    {
      "buffer": 0,
      "byteLength": 34344,
      "byteOffset": 35088,
      "byteStride": 12,
      "name": "floatBufferViews",
      "target": 34962
    },
    {
      "buffer": 0,
      "byteLength": 22896,
      "byteOffset": 69432,
      "byteStride": 16,
      "name": "floatBufferViews",
      "target": 34962
    }
  ],
  "buffers": [
    {
      "byteLength": 92328,
      "uri": "scene.bin"
    }
  ],
  "images": [
    {
      "uri": "textures/08_-_Default_baseColor.png"
    },
    {
      "uri": "textures/09_-_Default_baseColor.png"
    },
    {
      "uri": "textures/09_-_Default_normal.png"
    },
    {
      "uri": "textures/13_-_Default_baseColor.png"
    }
  ],
  "materials": [
    {
      "doubleSided": true,
      "emissiveFactor": [
        0,
        0,
        0
      ],
      "name": "08_-_Default",
      "pbrMetallicRoughness": {
        "baseColorFactor": [
          1,
          1,
          1,
          1
        ],
        "baseColorTexture": {
          "index": 0,
          "texCoord": 0
        },
        "metallicFactor": 0.1114710366,
        "roughnessFactor": 0.35804115849999996
      }
    },
    {
      "doubleSided": true,
      "emissiveFactor": [
        0,
        0,
        0
      ],
      "name": "13_-_Default",
      "pbrMetallicRoughness": {
        "baseColorFactor": [
          1,
          1,
          1,
          1
        ],
        "baseColorTexture": {
          "index": 3,
          "texCoord": 0
        },
        "metallicFactor": 0.33000000000000002,
        "roughnessFactor": 0.33365091459999996
      }
    },
    {
      "doubleSided": true,
      "emissiveFactor": [
        0,
        0,
        0
      ],
      "name": "09_-_Default",
      "normalTexture": {
        "index": 2,
        "scale": 0.33000000000000002,
        "texCoord": 0
      },
      "pbrMetallicRoughness": {
        "baseColorFactor": [
          1,
          1,
          1,
          1
        ],
        "baseColorTexture": {
          "index": 1,
          "texCoord": 0
        },
        "metallicFactor": 0.30659298779999999,
        "roughnessFactor": 0.58365091459999996
      }
    }
  ],
  "meshes": [
    {
      "name": "Cylinder001_08 - Default_0",
      "primitives": [
        {
          "attributes": {
            "NORMAL": 1,
            "POSITION": 0,
            "TANGENT": 2,
            "TEXCOORD_0": 3
          },
          "indices": 4,
          "material": 0,
          "mode": 4
        }
      ]
    },
    {
      "name": "Cylinder001_13 - Default_0",
      "primitives": [
        {
          "attributes": {
            "NORMAL": 6,
            "POSITION": 5,
            "TANGENT": 7,
            "TEXCOORD_0": 8
          },
          "indices": 9,
          "material": 1,
          "mode": 4
        }
      ]
    },
    {
      "name": "Cylinder001_09 - Default_0",
      "primitives": [
        {
          "attributes": {
            "NORMAL": 11,
            "POSITION": 10,
            "TANGENT": 12,
            "TEXCOORD_0": 13
          },
          "indices": 14,
          "material": 2,
          "mode": 4
        }
      ]
    }
  ],
  "nodes": [
    {
      "children": [
        1
      ],
      "name": "RootNode (gltf orientation matrix)",
      "rotation": [
        -0.70710678118654746,
        -0,
        -0,
        0.70710678118654757
      ]
    },
    {
      "children": [
        2
      ],
      "name": "RootNode (model correction matrix)"
    },
    {
      "children": [
        3
      ],
      "matrix": [
        1,
        0,
        0,
        0,
        0,
        0,
        1,
        0,
        0,
        -1,
        0,
        0,
        0,
        0,
        0,
        1
      ],
      "name": "Gary.FBX"
    },
    {
      "children": [
        4
      ],
      "name": "RootNode"
    },
    {
      "children": [
        5,
        6,
        7
      ],
      "matrix": [
        1.7795017957687378,
        0,
        0,
        0,
        0,
        2.2204460492503131e-16,
        -1,
        0,
        0,
        1,
        2.2204460492503131e-16,
        0,
        0,
        0,
        0,
        1
      ],
      "name": "Cylinder001"
    },
    {
      "mesh": 0,
      "name": "Cylinder001_08 - Default_0"
    },
    {
      "mesh": 1,
      "name": "Cylinder001_13 - Default_0"
    },
    {
      "mesh": 2,
      "name": "Cylinder001_09 - Default_0"
    }
  ],
  "samplers": [
    {
      "magFilter": 9729,
      "minFilter": 9987,
      "wrapS": 10497,
      "wrapT": 10497
    }
  ],
  "scene": 0,
  "scenes": [
    {
      "name": "OSG_Scene",
      "nodes": [
        0
      ]
    }
  ],
  "textures": [
    {
      "sampler": 0,
      "source": 0
    },
    {
      "sampler": 0,
      "source": 1
    },
    {
      "sampler": 0,
      "source": 2
    },
    {
      "sampler": 0,
      "source": 3
    }
  ]
}

