{
  "accessors": [
    {
      "bufferView": 2,
      "componentType": 5126,
      "count": 684,
      "max": [
        -236.7142333984375,
        -14.643767356872559,
        596.1024169921875
      ],
      "min": [
        -352.13067626953125,
        -75.7872085571289,
        421.26641845703125
      ],
      "type": "VEC3"
    },
    {
      "bufferView": 2,
      "byteOffset": 8208,
      "componentType": 5126,
      "count": 684,
      "max": [
        1.0,
        1.0,
        1.0
      ],
      "min": [
        -1.0,
        -1.0,
        -1.0
      ],
      "type": "VEC3"
    },
    {
      "bufferView": 1,
      "componentType": 5126,
      "count": 684,
      "max": [
        1.0,
        1.0
      ],
      "min": [
        0.0,
        0.0
      ],
      "type": "VEC2"
    },
    {
      "bufferView": 0,
      "componentType": 5125,
      "count": 2688,
      "type": "SCALAR"
    },
    {
      "bufferView": 2,
      "byteOffset": 16416,
      "componentType": 5126,
      "count": 48,
      "max": [
        56.934326171875,
        -145.3905487060547,
        247.59271240234375
      ],
      "min": [
        -74.04830169677734,
        -281.68316650390625,
        6.703652381896973
      ],
      "type": "VEC3"
    },
    {
      "bufferView": 2,
      "byteOffset": 16992,
      "componentType": 5126,
      "count": 48,
      "max": [
        0.9999703168869019,
        1.0,
        0.9995423555374146
      ],
      "min": [
        -0.9999647736549377,
        -1.0,
        -0.024191364645957947
      ],
      "type": "VEC3"
    },
    {
      "bufferView": 1,
      "byteOffset": 5472,
      "componentType": 5126,
      "count": 48,
      "max": [
        0.0,
        1.0
      ],
      "min": [
        0.0,
        1.0
      ],
      "type": "VEC2"
    },
    {
      "bufferView": 0,
      "byteOffset": 10752,
      "componentType": 5125,
      "count": 126,
      "type": "SCALAR"
    },
    {
      "bufferView": 2,
      "byteOffset": 17568,
      "componentType": 5126,
      "count": 140,
      "max": [
        84.05998229980469,
        -120.1341552734375,
        258.2687683105469
      ],
      "min": [
        -97.72924041748047,
        -298.80364990234375,
        6.207231044769287
      ],
      "type": "VEC3"
    },
    {
      "bufferView": 2,
      "byteOffset": 19248,
      "componentType": 5126,
      "count": 140,
      "max": [
        1.0,
        1.0,
        0.9944088459014893
      ],
      "min": [
        -1.0,
        -1.0,
        -1.0
      ],
      "type": "VEC3"
    },
    {
      "bufferView": 1,
      "byteOffset": 5856,
      "componentType": 5126,
      "count": 140,
      "max": [
        1.0,
        1.0
      ],
      "min": [
        0.0,
        0.0
      ],
      "type": "VEC2"
    },
    {
      "bufferView": 0,
      "byteOffset": 11256,
      "componentType": 5125,
      "count": 372,
      "type": "SCALAR"
    },
    {
      "bufferView": 2,
      "byteOffset": 20928,
      "componentType": 5126,
      "count": 20,
      "max": [
        240.18856811523438,
        -105.12349700927734,
        510.9518127441406
      ],
      "min": [
        -236.08929443359375,
        -218.8323516845703,
        173.14334106445313
      ],
      "type": "VEC3"
    },
    {
      "bufferView": 2,
      "byteOffset": 21168,
      "componentType": 5126,
      "count": 20,
      "max": [
        0.8009539246559143,
        -0.5370930433273315,
        0.35257917642593384
      ],
      "min": [
        -0.8101826310157776,
        -0.8107643127441406,
        -0.2939678728580475
      ],
      "type": "VEC3"
    },
    {
      "bufferView": 1,
      "byteOffset": 6976,
      "componentType": 5126,
      "count": 20,
      "max": [
        0.9619396924972534,
        0.9152597784996033
      ],
      "min": [
        0.0,
        -2.5923233032226563
      ],
      "type": "VEC2"
    },
    {
      "bufferView": 0,
      "byteOffset": 12744,
      "componentType": 5125,
      "count": 48,
      "type": "SCALAR"
    },
    {
      "bufferView": 2,
      "byteOffset": 21408,
      "componentType": 5126,
      "count": 2869,
      "max": [
        252.40213012695313,
        -111.36150360107422,
        518.2706298828125
      ],
      "min": [
        -247.75021362304688,
        -304.3773498535156,
        21.466562271118164
      ],
      "type": "VEC3"
    },
    {
      "bufferView": 2,
      "byteOffset": 55836,
      "componentType": 5126,
      "count": 2869,
      "max": [
        1.0,
        1.0,
        1.0
      ],
      "min": [
        -1.0,
        -1.0,
        -1.0
      ],
      "type": "VEC3"
    },
    {
      "bufferView": 1,
      "byteOffset": 7136,
      "componentType": 5126,
      "count": 2869,
      "max": [
        1.0,
        1.0
      ],
      "min": [
        0.0,
        0.0
      ],
      "type": "VEC2"
    },
    {
      "bufferView": 0,
      "byteOffset": 12936,
      "componentType": 5125,
      "count": 12768,
      "type": "SCALAR"
    },
    {
      "bufferView": 2,
      "byteOffset": 90264,
      "componentType": 5126,
      "count": 8529,
      "max": [
        323.3022766113281,
        61.004676818847656,
        981.6412353515625
      ],
      "min": [
        -147.3810272216797,
        -248.806396484375,
        599.330078125
      ],
      "type": "VEC3"
    },
    {
      "bufferView": 2,
      "byteOffset": 192612,
      "componentType": 5126,
      "count": 8529,
      "max": [
        0.9956809878349304,
        0.9995438456535339,
        0.9977284073829651
      ],
      "min": [
        -0.9966610670089722,
        -0.997926652431488,
        -0.995536744594574
      ],
      "type": "VEC3"
    },
    {
      "bufferView": 1,
      "byteOffset": 30088,
      "componentType": 5126,
      "count": 8529,
      "max": [
        1.0,
        1.0
      ],
      "min": [
        0.0,
        0.0
      ],
      "type": "VEC2"
    },
    {
      "bufferView": 0,
      "byteOffset": 64008,
      "componentType": 5125,
      "count": 48384,
      "type": "SCALAR"
    },
    {
      "bufferView": 2,
      "byteOffset": 294960,
      "componentType": 5126,
      "count": 8529,
      "max": [
        48.71448516845703,
        252.1961669921875,
        1031.7520751953125
      ],
      "min": [
        -202.50320434570313,
        -95.39342498779297,
        585.1159057617188
      ],
      "type": "VEC3"
    },
    {
      "bufferView": 2,
      "byteOffset": 397308,
      "componentType": 5126,
      "count": 8529,
      "max": [
        0.9999193549156189,
        0.9998281598091125,
        0.9966630935668945
      ],
      "min": [
        -0.9994508028030396,
        -0.9998219609260559,
        -0.999942421913147
      ],
      "type": "VEC3"
    },
    {
      "bufferView": 1,
      "byteOffset": 98320,
      "componentType": 5126,
      "count": 8529,
      "max": [
        1.0,
        1.0
      ],
      "min": [
        0.0,
        0.0
      ],
      "type": "VEC2"
    },
    {
      "bufferView": 0,
      "byteOffset": 257544,
      "componentType": 5125,
      "count": 48384,
      "type": "SCALAR"
    },
    {
      "bufferView": 2,
      "byteOffset": 499656,
      "componentType": 5126,
      "count": 8549,
      "max": [
        252.4758758544922,
        245.19386291503906,
        1017.0360717773438
      ],
      "min": [
        -23.00196647644043,
        -350.71270751953125,
        611.2786865234375
      ],
      "type": "VEC3"
    },
    {
      "bufferView": 2,
      "byteOffset": 602244,
      "componentType": 5126,
      "count": 8549,
      "max": [
        1.0,
        0.999596118927002,
        0.9982423782348633
      ],
      "min": [
        -1.0,
        -0.9992267489433289,
        -0.9999960660934448
      ],
      "type": "VEC3"
    },
    {
      "bufferView": 1,
      "byteOffset": 166552,
      "componentType": 5126,
      "count": 8549,
      "max": [
        1.0,
        1.0
      ],
      "min": [
        0.0,
        0.0
      ],
      "type": "VEC2"
    },
    {
      "bufferView": 0,
      "byteOffset": 451080,
      "componentType": 5125,
      "count": 48384,
      "type": "SCALAR"
    },
    {
      "bufferView": 2,
      "byteOffset": 704832,
      "componentType": 5126,
      "count": 2494,
      "max": [
        256.94256591796875,
        -87.97315979003906,
        523.2687377929688
      ],
      "min": [
        -249.9567108154297,
        -289.4875793457031,
        84.31242370605469
      ],
      "type": "VEC3"
    },
    {
      "bufferView": 2,
      "byteOffset": 734760,
      "componentType": 5126,
      "count": 2494,
      "max": [
        1.0,
        1.0,
        1.0
      ],
      "min": [
        -1.0,
        -1.0,
        -1.0
      ],
      "type": "VEC3"
    },
    {
      "bufferView": 1,
      "byteOffset": 234944,
      "componentType": 5126,
      "count": 2494,
      "max": [
        1.0,
        1.0
      ],
      "min": [
        0.0,
        0.0
      ],
      "type": "VEC2"
    },
    {
      "bufferView": 0,
      "byteOffset": 644616,
      "componentType": 5125,
      "count": 12000,
      "type": "SCALAR"
    },
    {
      "bufferView": 2,
      "byteOffset": 764688,
      "componentType": 5126,
      "count": 242,
      "max": [
        309.14141845703125,
        283.4182434082031,
        693.8326416015625
      ],
      "min": [
        -264.7795104980469,
        -283.4182434082031,
        6.207231044769287
      ],
      "type": "VEC3"
    },
    {
      "bufferView": 2,
      "byteOffset": 767592,
      "componentType": 5126,
      "count": 242,
      "max": [
        1.0,
        0.9932805895805359,
        1.0
      ],
      "min": [
        -0.9997976422309875,
        -0.9932805895805359,
        -1.0
      ],
      "type": "VEC3"
    },
    {
      "bufferView": 1,
      "byteOffset": 254896,
      "componentType": 5126,
      "count": 242,
      "max": [
        1.0,
        1.0
      ],
      "min": [
        0.0,
        0.0
      ],
      "type": "VEC2"
    },
    {
      "bufferView": 0,
      "byteOffset": 692616,
      "componentType": 5125,
      "count": 1146,
      "type": "SCALAR"
    }
  ],
  "asset": {
    "extras": {
      "author": "Designed By Jonathan (https://sketchfab.com/designedbyjonathan)",
      "license": "CC-BY-4.0 (http://creativecommons.org/licenses/by/4.0/)",
      "source": "https://sketchfab.com/3d-models/spongebobs-pineapple-house-54caa18b2c9b4cb0a65eee107f8169d3",
      "title": "Spongebob's Pineapple House"
    },
    "generator": "Sketchfab-11.53.0",
    "version": "2.0"
  },
  "bufferViews": [
    {
      "buffer": 0,
      "byteLength": 697200,
      "name": "floatBufferViews",
      "target": 34963
    },
    {
      "buffer": 0,
      "byteLength": 256832,
      "byteOffset": 697200,
      "byteStride": 8,
      "name": "floatBufferViews",
      "target": 34962
    },
    {
      "buffer": 0,
      "byteLength": 770496,
      "byteOffset": 954032,
      "byteStride": 12,
      "name": "floatBufferViews",
      "target": 34962
    }
  ],
  "buffers": [
    {
      "byteLength": 1724528,
      "uri": "scene.bin"
    }
  ],
  "materials": [
    {
      "doubleSided": true,
      "name": "material",
      "pbrMetallicRoughness": {
        "baseColorFactor": [
          0.13119999999999998,
          0.2706,
          0.41,
          1.0
        ],
        "metallicFactor": 0.0,
        "roughnessFactor": 0.1896256887706631
      }
    },
    {
      "doubleSided": true,
      "name": "Mat_1",
      "pbrMetallicRoughness": {
        "baseColorFactor": [
          0.11280000000000004,
          0.4699999999999998,
          0.11875299999999993,
          1.0
        ],
        "metallicFactor": 0.0,
        "roughnessFactor": 0.1896256887706631
      }
    },
    {
      "doubleSided": true,
      "name": "Mat_2",
      "pbrMetallicRoughness": {
        "baseColorFactor": [
          0.18560000000000032,
          0.3828,
          0.5799999999999994,
          1.0
        ],
        "metallicFactor": 0.0,
        "roughnessFactor": 0.18354550636519096
      }
    },
    {
      "doubleSided": true,
      "name": "Mat_3",
      "pbrMetallicRoughness": {
        "baseColorFactor": [
          0.256,
          0.528,
          0.8,
          1.0
        ],
        "metallicFactor": 0.0,
        "roughnessFactor": 0.1896256887706631
      }
    },
    {
      "doubleSided": true,
      "name": "Mat_4",
      "pbrMetallicRoughness": {
        "baseColorFactor": [
          1.0,
          0.2782186266547933,
          0.03709710925778361,
          1.0
        ],
        "metallicFactor": 0.0,
        "roughnessFactor": 0.18354550636519096
      }
    },
    {
      "doubleSided": true,
      "name": "Mat_5",
      "pbrMetallicRoughness": {
        "baseColorFactor": [
          0.35000000000000003,
          0.8483330000000002,
          1.0,
          1.0
        ],
        "metallicFactor": 0.0,
        "roughnessFactor": 0.18354550636519096
      }
    }
  ],
  "meshes": [
    {
      "name": "Object_0",
      "primitives": [
        {
          "attributes": {
            "NORMAL": 1,
            "POSITION": 0,
            "TEXCOORD_0": 2
          },
          "indices": 3,
          "material": 2,
          "mode": 4
        }
      ]
    },
    {
      "name": "Object_1",
      "primitives": [
        {
          "attributes": {
            "NORMAL": 5,
            "POSITION": 4,
            "TEXCOORD_0": 6
          },
          "indices": 7,
          "material": 3,
          "mode": 4
        }
      ]
    },
    {
      "name": "Object_2",
      "primitives": [
        {
          "attributes": {
            "NORMAL": 9,
            "POSITION": 8,
            "TEXCOORD_0": 10
          },
          "indices": 11,
          "material": 3,
          "mode": 4
        }
      ]
    },
    {
      "name": "Object_3",
      "primitives": [
        {
          "attributes": {
            "NORMAL": 13,
            "POSITION": 12,
            "TEXCOORD_0": 14
          },
          "indices": 15,
          "material": 5,
          "mode": 4
        }
      ]
    },
    {
      "name": "Object_4",
      "primitives": [
        {
          "attributes": {
            "NORMAL": 17,
            "POSITION": 16,
            "TEXCOORD_0": 18
          },
          "indices": 19,
          "material": 0,
          "mode": 4
        }
      ]
    },
    {
      "name": "Object_5",
      "primitives": [
        {
          "attributes": {
            "NORMAL": 21,
            "POSITION": 20,
            "TEXCOORD_0": 22
          },
          "indices": 23,
          "material": 1,
          "mode": 4
        }
      ]
    },
    {
      "name": "Object_6",
      "primitives": [
        {
          "attributes": {
            "NORMAL": 25,
            "POSITION": 24,
            "TEXCOORD_0": 26
          },
          "indices": 27,
          "material": 1,
          "mode": 4
        }
      ]
    },
    {
      "name": "Object_7",
      "primitives": [
        {
          "attributes": {
            "NORMAL": 29,
            "POSITION": 28,
            "TEXCOORD_0": 30
          },
          "indices": 31,
          "material": 1,
          "mode": 4
        }
      ]
    },
    {
      "name": "Object_8",
      "primitives": [
        {
          "attributes": {
            "NORMAL": 33,
            "POSITION": 32,
            "TEXCOORD_0": 34
          },
          "indices": 35,
          "material": 2,
          "mode": 4
        }
      ]
    },
    {
      "name": "Object_9",
      "primitives": [
        {
          "attributes": {
            "NORMAL": 37,
            "POSITION": 36,
            "TEXCOORD_0": 38
          },
          "indices": 39,
          "material": 4,
          "mode": 4
        }
      ]
    }
  ],
  "nodes": [
    {
      "children": [
        1
      ],
      "matrix": [
        1.0,
        0.0,
        0.0,
        0.0,
        0.0,
        2.220446049250313e-16,
        -1.0,
        0.0,
        0.0,
        1.0,
        2.220446049250313e-16,
        0.0,
        0.0,
        0.0,
        0.0,
        1.0
      ],
      "name": "Sketchfab_model"
    },
    {
      "children": [
        2,
        3,
        4,
        5,
        6,
        7,
        8,
        9,
        10,
        11
      ],
      "name": "Pineapple House.obj.cleaner.materialmerger.gles"
    },
    {
      "mesh": 0,
      "name": "Object_2"
    },
    {
      "mesh": 1,
      "name": "Object_3"
    },
    {
      "mesh": 2,
      "name": "Object_4"
    },
    {
      "mesh": 3,
      "name": "Object_5"
    },
    {
      "mesh": 4,
      "name": "Object_6"
    },
    {
      "mesh": 5,
      "name": "Object_7"
    },
    {
      "mesh": 6,
      "name": "Object_8"
    },
    {
      "mesh": 7,
      "name": "Object_9"
    },
    {
      "mesh": 8,
      "name": "Object_10"
    },
    {
      "mesh": 9,
      "name": "Object_11"
    }
  ],
  "scene": 0,
  "scenes": [
    {
      "name": "Sketchfab_Scene",
      "nodes": [
        0
      ]
    }
  ]
}
