{
  "accessors": [
    {
      "bufferView": 1,
      "componentType": 5126,
      "count": 657,
      "max": [
        304.05712890625,
        -88.48560333251953,
        86.28173065185547
      ],
      "min": [
        216.16018676757813,
        -509.87060546875,
        -0.6254708766937256
      ],
      "type": "VEC3"
    },
    {
      "bufferView": 1,
      "byteOffset": 7884,
      "componentType": 5126,
      "count": 657,
      "max": [
        1.0,
        1.0,
        1.0
      ],
      "min": [
        -1.0,
        -1.0,
        -1.0
      ],
      "type": "VEC3"
    },
    {
      "bufferView": 0,
      "componentType": 5125,
      "count": 3405,
      "type": "SCALAR"
    },
    {
      "bufferView": 1,
      "byteOffset": 15768,
      "componentType": 5126,
      "count": 40,
      "max": [
        526.7574462890625,
        189.1537322998047,
        0.0
      ],
      "min": [
        0.06992489844560623,
        -536.1587524414063,
        -17.1875
      ],
      "type": "VEC3"
    },
    {
      "bufferView": 1,
      "byteOffset": 16248,
      "componentType": 5126,
      "count": 40,
      "max": [
        1.0,
        1.0,
        1.0
      ],
      "min": [
        -1.0,
        -1.0,
        -1.0
      ],
      "type": "VEC3"
    },
    {
      "bufferView": 0,
      "byteOffset": 13620,
      "componentType": 5125,
      "count": 90,
      "type": "SCALAR"
    },
    {
      "bufferView": 1,
      "byteOffset": 16728,
      "componentType": 5126,
      "count": 867,
      "max": [
        405.798583984375,
        157.10499572753906,
        398.9375
      ],
      "min": [
        112.05094146728516,
        -102.24739074707031,
        -0.6254708766937256
      ],
      "type": "VEC3"
    },
    {
      "bufferView": 1,
      "byteOffset": 27132,
      "componentType": 5126,
      "count": 867,
      "max": [
        1.0,
        1.0,
        1.0
      ],
      "min": [
        -1.0,
        -1.0,
        -1.0
      ],
      "type": "VEC3"
    },
    {
      "bufferView": 0,
      "byteOffset": 13980,
      "componentType": 5125,
      "count": 2379,
      "type": "SCALAR"
    },
    {
      "bufferView": 1,
      "byteOffset": 37536,
      "componentType": 5126,
      "count": 912,
      "max": [
        338.6675109863281,
        -31.262619018554688,
        293.4689025878906
      ],
      "min": [
        181.86947631835938,
        -84.60816955566406,
        229.71096801757813
      ],
      "type": "VEC3"
    },
    {
      "bufferView": 1,
      "byteOffset": 48480,
      "componentType": 5126,
      "count": 912,
      "max": [
        0.9012132883071899,
        0.8910514712333679,
        0.9855244159698486
      ],
      "min": [
        -0.9012132883071899,
        -0.8910514712333679,
        -0.9855244159698486
      ],
      "type": "VEC3"
    },
    {
      "bufferView": 0,
      "byteOffset": 23496,
      "componentType": 5125,
      "count": 3012,
      "type": "SCALAR"
    },
    {
      "bufferView": 1,
      "byteOffset": 59424,
      "componentType": 5126,
      "count": 48,
      "max": [
        325.6848449707031,
        -55.65161895751953,
        281.4064636230469
      ],
      "min": [
        194.52029418945313,
        -74.480712890625,
        243.98257446289063
      ],
      "type": "VEC3"
    },
    {
      "bufferView": 1,
      "byteOffset": 60000,
      "componentType": 5126,
      "count": 48,
      "max": [
        0.4529491662979126,
        -0.8807749152183533,
        0.13810445368289948
      ],
      "min": [
        -0.4323822557926178,
        -0.8910514712333679,
        0.1381044238805771
      ],
      "type": "VEC3"
    },
    {
      "bufferView": 0,
      "byteOffset": 35544,
      "componentType": 5125,
      "count": 132,
      "type": "SCALAR"
    }
  ],
  "asset": {
    "extras": {
      "author": "Designed By Jonathan (https://sketchfab.com/designedbyjonathan)",
      "license": "CC-BY-4.0 (http://creativecommons.org/licenses/by/4.0/)",
      "source": "https://sketchfab.com/3d-models/squidwards-house-296d003a52234d868dd821b43c6b1856",
      "title": "Squidward's House"
    },
    "generator": "Sketchfab-12.0.1",
    "version": "2.0"
  },
  "bufferViews": [
    {
      "buffer": 0,
      "byteLength": 36072,
      "name": "floatBufferViews",
      "target": 34963
    },
    {
      "buffer": 0,
      "byteLength": 60576,
      "byteOffset": 36072,
      "byteStride": 12,
      "name": "floatBufferViews",
      "target": 34962
    }
  ],
  "buffers": [
    {
      "byteLength": 96648,
      "uri": "scene.bin"
    }
  ],
  "materials": [
    {
      "name": "Material3",
      "pbrMetallicRoughness": {
        "baseColorFactor": [
          0.498039,
          0.247059,
          0.0078431,
          1.0
        ],
        "metallicFactor": 0.0,
        "roughnessFactor": 0.6
      }
    },
    {
      "name": "0012_Bisque",
      "pbrMetallicRoughness": {
        "baseColorFactor": [
          0.732532985489547,
          0.4886693296834477,
          0.2568822905355782,
          1.0
        ],
        "metallicFactor": 0.0,
        "roughnessFactor": 0.6
      }
    },
    {
      "name": "Material",
      "pbrMetallicRoughness": {
        "baseColorFactor": [
          0.027451,
          0.247059,
          0.501961,
          1.0
        ],
        "metallicFactor": 0.0,
        "roughnessFactor": 0.6
      }
    },
    {
      "name": "Material1",
      "pbrMetallicRoughness": {
        "baseColorFactor": [
          0.0588235,
          0.498039,
          0.996078,
          1.0
        ],
        "metallicFactor": 0.0,
        "roughnessFactor": 0.6
      }
    },
    {
      "name": "Material2",
      "pbrMetallicRoughness": {
        "baseColorFactor": [
          0.4,
          0.8,
          0.996078,
          1.0
        ],
        "metallicFactor": 0.0,
        "roughnessFactor": 0.6
      }
    }
  ],
  "meshes": [
    {
      "name": "Material2",
      "primitives": [
        {
          "attributes": {
            "NORMAL": 1,
            "POSITION": 0
          },
          "indices": 2,
          "material": 0,
          "mode": 4
        }
      ]
    },
    {
      "name": "Material2",
      "primitives": [
        {
          "attributes": {
            "NORMAL": 4,
            "POSITION": 3
          },
          "indices": 5,
          "material": 1,
          "mode": 4
        }
      ]
    },
    {
      "name": "Material2",
      "primitives": [
        {
          "attributes": {
            "NORMAL": 7,
            "POSITION": 6
          },
          "indices": 8,
          "material": 2,
          "mode": 4
        }
      ]
    },
    {
      "name": "Material2",
      "primitives": [
        {
          "attributes": {
            "NORMAL": 10,
            "POSITION": 9
          },
          "indices": 11,
          "material": 3,
          "mode": 4
        }
      ]
    },
    {
      "name": "Material3",
      "primitives": [
        {
          "attributes": {
            "NORMAL": 13,
            "POSITION": 12
          },
          "indices": 14,
          "material": 4,
          "mode": 4
        }
      ]
    }
  ],
  "nodes": [
    {
      "children": [
        1
      ],
      "matrix": [
        2.220446049250313e-16,
        2.220446049250313e-16,
        -1.0,
        0.0,
        -1.0,
        4.930380657631324e-32,
        -2.220446049250313e-16,
        0.0,
        0.0,
        1.0,
        2.220446049250313e-16,
        0.0,
        89.90597534179688,
        -9.70157182128735e-14,
        436.9199523925781,
        1.0
      ],
      "name": "Sketchfab_model"
    },
    {
      "children": [
        2,
        3,
        4,
        5,
        6,
        7
      ],
      "name": "Collada visual scene group"
    },
    {
      "mesh": 0,
      "name": "Material2"
    },
    {
      "mesh": 1,
      "name": "Material2"
    },
    {
      "mesh": 2,
      "name": "Material2"
    },
    {
      "mesh": 3,
      "name": "Material2"
    },
    {
      "mesh": 4,
      "name": "Material3"
    },
    {
      "children": [
        8
      ],
      "name": "SketchUp"
    },
    {
      "children": [
        9
      ],
      "matrix": [
        0.967775,
        0.2518164,
        0.0,
        0.0,
        -0.036349,
        0.1396955,
        0.9895271,
        0.0,
        0.2491792,
        -0.9576396,
        0.1443471,
        0.0,
        699.9796753,
        -1646.6472168,
        353.9468384,
        1.0
      ],
      "name": "skp_camera_Last_Saved_SketchUp_View"
    },
    {
      "name": "ID1"
    }
  ],
  "scene": 0,
  "scenes": [
    {
      "name": "Sketchfab_Scene",
      "nodes": [
        0
      ]
    }
  ]
}
