{
  "accessors": [
    {
      "bufferView": 2,
      "componentType": 5126,
      "count": 1636,
      "max": [
        0.74299997091293335,
        0.32589998841285706,
        1.5232000350952148
      ],
      "min": [
        -0.74199998378753662,
        -0.25240001082420349,
        0.00039999998989515007
      ],
      "type": "VEC3"
    },
    {
      "bufferView": 2,
      "byteOffset": 19632,
      "componentType": 5126,
      "count": 1636,
      "max": [
        0.99920105934143066,
        0.99917471408843994,
        0.9989357590675354
      ],
      "min": [
        -0.99920105934143066,
        -0.99994689226150513,
        -0.99992120265960693
      ],
      "type": "VEC3"
    },
    {
      "bufferView": 3,
      "componentType": 5126,
      "count": 1636,
      "max": [
        1,
        0.99998670816421509,
        0.99922114610671997,
        1
      ],
      "min": [
        -0.99985504150390625,
        -0.99993515014648438,
        -0.99960058927536011,
        -1
      ],
      "type": "VEC4"
    },
    {
      "bufferView": 1,
      "componentType": 5126,
      "count": 1636,
      "max": [
        1.993399977684021,
        1.9868999719619751
      ],
      "min": [
        -0.20370000600814819,
        -0.057000000029802322
      ],
      "type": "VEC2"
    },
    {
      "bufferView": 0,
      "componentType": 5125,
      "count": 6930,
      "max": [
        1635
      ],
      "min": [
        0
      ],
      "type": "SCALAR"
    }
  ],
  "asset": {
    "extras": {
      "author": "ChicaKnowsFNAF (https://sketchfab.com/mugur_pet)",
      "license": "CC-BY-4.0 (http://creativecommons.org/licenses/by/4.0/)",
      "source": "https://sketchfab.com/models/6cfaaf749ccf4fd9a6521a79e2a2349c",
      "title": "Patrick"
    },
    "generator": "Sketchfab-3.18.6",
    "version": "2.0"
  },
  "bufferViews": [
    {
      "buffer": 0,
      "byteLength": 27720,
      "byteOffset": 0,
      "name": "floatBufferViews",
      "target": 34963
    },
    {
      "buffer": 0,
      "byteLength": 13088,
      "byteOffset": 27720,
      "byteStride": 8,
      "name": "floatBufferViews",
      "target": 34962
    },
    {
      "buffer": 0,
      "byteLength": 39264,
      "byteOffset": 40808,
      "byteStride": 12,
      "name": "floatBufferViews",
      "target": 34962
    },
    {
      "buffer": 0,
      "byteLength": 26176,
      "byteOffset": 80072,
      "byteStride": 16,
      "name": "floatBufferViews",
      "target": 34962
    }
  ],
  "buffers": [
    {
      "byteLength": 106248,
      "uri": "scene.bin"
    }
  ],
  "images": [
    {
      "uri": "textures/patrick_baseColor.png"
    }
  ],
  "materials": [
    {
      "doubleSided": true,
      "emissiveFactor": [
        0,
        0,
        0
      ],
      "name": "patrick",
      "pbrMetallicRoughness": {
        "baseColorFactor": [
          1,
          1,
          1,
          1
        ],
        "baseColorTexture": {
          "index": 0,
          "texCoord": 0
        },
        "metallicFactor": 0,
        "roughnessFactor": 0.20000000000000001
      }
    }
  ],
  "meshes": [
    {
      "primitives": [
        {
          "attributes": {
            "NORMAL": 1,
            "POSITION": 0,
            "TANGENT": 2,
            "TEXCOORD_0": 3
          },
          "indices": 4,
          "material": 0,
          "mode": 4
        }
      ]
    }
  ],
  "nodes": [
    {
      "children": [
        1
      ],
      "name": "RootNode (gltf orientation matrix)",
      "rotation": [
        -0.70710678118654746,
        -0,
        -0,
        0.70710678118654757
      ]
    },
    {
      "children": [
        2
      ],
      "name": "RootNode (model correction matrix)"
    },
    {
      "children": [
        3
      ],
      "name": "168631bb92834a24b8c5095bc2fcbb2c.obj.cleaner.gles"
    },
    {
      "mesh": 0,
      "name": ""
    }
  ],
  "samplers": [
    {
      "magFilter": 9729,
      "minFilter": 9987,
      "wrapS": 10497,
      "wrapT": 10497
    }
  ],
  "scene": 0,
  "scenes": [
    {
      "name": "OSG_Scene",
      "nodes": [
        0
      ]
    }
  ],
  "textures": [
    {
      "sampler": 0,
      "source": 0
    }
  ]
}

